# Blender 3.4.1
# www.blender.org
mtllib tetrahedrons_cubefit.mtl
o Cone
v -0.500000 -0.500000 0.500000
v 0.500000 -0.500000 -0.500000
v -0.500000 0.500000 -0.500000
v 0.500000 0.500000 0.500000
vn -0.5774 0.5774 0.5774
vn 0.5774 -0.5774 0.5774
vn 0.5774 0.5774 -0.5774
vn -0.5774 -0.5774 -0.5774
vt 0.000000 0.000000
vt 1.000000 1.000000
vt 0.000000 1.000000
vt 1.000000 0.999814
vt 0.500000 0.000000
vt 0.500000 1.000000
vt 0.000000 0.500000
vt 0.000000 1.000000
vt 1.000000 0.500000
vt 1.000000 0.000000
s 0
usemtl Material.001
f 4/10/1 3/6/1 1/1/1
f 4/9/2 1/1/2 2/3/2
f 4/10/3 2/4/3 3/7/3
f 3/8/4 2/5/4 1/2/4
